<?xml version="1.0" standalone="no"?>
<!DOCTYPE svg PUBLIC "-//W3C//DTD SVG 20010904//EN"
 "http://www.w3.org/TR/2001/REC-SVG-20010904/DTD/svg10.dtd">
<svg version="1.0" xmlns="http://www.w3.org/2000/svg"
 width="600.000000pt" height="600.000000pt" viewBox="0 0 600.000000 600.000000"
 preserveAspectRatio="xMidYMid meet">
<metadata>
Created by potrace 1.14, written by Peter Selinger 2001-2017
</metadata>
<g transform="translate(0.000000,600.000000) scale(0.100000,-0.100000)"
fill="#000000" stroke="none">
<path d="M3000 5680 l0 -110 -215 0 -215 0 0 -105 0 -105 -105 0 -104 0 -3
-107 -3 -108 -107 -3 -108 -3 0 -214 0 -215 -105 0 -105 0 0 -105 0 -105 -110
0 -110 0 0 -430 0 -430 103 0 104 0 6 -157 c4 -87 7 -231 7 -320 l0 -163 105
0 105 0 0 -215 0 -215 110 0 110 0 0 -210 0 -209 103 -3 102 -3 3 -108 3 -107
214 0 215 0 0 -105 0 -105 210 0 210 0 0 105 0 105 110 0 110 0 0 -215 0 -215
-215 0 -215 0 0 -105 0 -105 -105 0 -105 0 0 -215 0 -215 -105 0 -105 0 0
-429 0 -429 960 -1 960 -1 0 645 0 645 -105 0 -105 0 0 105 0 105 -110 0 -110
0 0 105 0 105 -105 0 -105 0 0 -105 0 -105 -105 0 -105 0 0 -210 0 -210 105 0
105 0 0 -110 0 -110 -105 0 -105 0 0 -110 0 -110 -110 0 -110 0 0 110 0 110
-110 0 -111 0 3 107 3 108 108 3 107 3 0 209 0 210 105 0 104 0 3 107 3 108
109 3 109 3 -4 317 -4 317 108 3 107 3 0 214 0 215 105 0 105 0 0 105 0 105
110 0 110 0 0 110 0 110 105 0 105 0 0 215 0 215 110 0 110 0 0 640 0 640
-110 0 -110 0 0 105 0 105 -105 0 -105 0 0 108 0 107 -107 0 -108 0 -3 108 -3
107 -104 0 -105 0 0 110 0 110 -640 0 -640 0 0 -110z m640 -1285 l0 -105 -105
0 -104 0 -3 -107 -3 -108 -107 -3 -108 -3 0 111 0 110 105 0 105 0 0 105 0
105 110 0 110 0 0 -105z m-1500 -215 l0 -110 -110 0 -110 0 0 110 0 110 110 0
110 0 0 -110z"/>
</g>
</svg>
